# xmcd
#
# Track frame offsets:
#	150
#	13917
#	28693
#	44178
#	56138
#	67895
#	81368
#	95006
#	108399
#	123063
#	136630
#	154799
#	167667
#	178709
#	191146
#	207144
#	220460
#	233837
#	246050
#	260812
#	278221
#	292433
#
# Disc length: 4116 seconds
#
# Revision: 2
# Processed by: cddbd v1.4b41PL1 Copyright (c) Steve Scherf et al.
# Submitted via: audiograbber 1.80
#
DISCID=54101216
DTITLE=Various Country Artists - Contemporary Country Early 1990's
DYEAR=1900
DGENRE=
TTITLE0=Brooks and Dunn - Brand New Man
TTITLE1=Sawyer Brown - Some Girls Do
TTITLE2=Patty Loveless - Jealous Bone
TTITLE3=Dwight Yoakam - It Only Hurts When I Cry
TTITLE4=Travis Tritt - Here's A Quarter
TTITLE5=Sammy Kershaw - Cadillac Style
TTITLE6=Carlene Carter - Come On Back
TTITLE7=Alan Jackson - Love's Got A Hold On You
TTITLE8=Diamond Rio - Mirror Mirror
TTITLE9=Hal Ketchum - Small Town Saturday Night
TTITLE10=Michelle Wright - Take It Like A Man
TTITLE11=Araon Tippin - There Ain't Nothing' Wrong With The Radio
TTITLE12=Mark Chesnutt - Old Flames Have New Names
TTITLE13=Randy Travis - Better Class Of Losers
TTITLE14=Tanya Tucker - Down To My Last Teardrop
TTITLE15=Tracy Lawrence - Runnin' Behind
TTITLE16=Vince Gill - Liza Jane
TTITLE17=Marty Stuart - Hillbilly Rock
TTITLE18=Pam Tillis - Don't Tell Me What To Do
TTITLE19=Rodney Crowell - Lovin' All Night
TTITLE20=Lorrie Morgan - We Both Walk
TTITLE21=John Michael Montgomery - Beer And Bones
EXTD=Added Artists Names
EXTT0=
EXTT1=
EXTT2=
EXTT3=
EXTT4=
EXTT5=
EXTT6=
EXTT7=
EXTT8=
EXTT9=
EXTT10=
EXTT11=
EXTT12=
EXTT13=
EXTT14=
EXTT15=
EXTT16=
EXTT17=
EXTT18=
EXTT19=
EXTT20=
EXTT21=
PLAYORDER=
